<?xml version="1.0" encoding="UTF-8" standalone="no"?>
<!DOCTYPE svg PUBLIC "-//W3C//DTD SVG 1.1//EN" "http://www.w3.org/Graphics/SVG/1.1/DTD/svg11.dtd">
<svg width="100%" height="100%" viewBox="0 0 12 12" version="1.1" xmlns="http://www.w3.org/2000/svg" xmlns:xlink="http://www.w3.org/1999/xlink" xml:space="preserve" xmlns:serif="http://www.serif.com/" style="fill-rule:evenodd;clip-rule:evenodd;stroke-linejoin:round;stroke-miterlimit:2;">
    <g transform="matrix(1,0,0,1,-1180,0)">
        <g id="Icon---Settings" serif:id="Icon | Settings" transform="matrix(0.307692,0,0,0.352941,816.615,0)">
            <rect x="1181" y="0" width="39" height="34" style="fill:none;"/>
            <clipPath id="_clip1">
                <rect x="1181" y="0" width="39" height="34"/>
            </clipPath>
            <g clip-path="url(#_clip1)">
                <g transform="matrix(2.37017,0,0,2.07603,440.859,-334.887)">
                    <path d="M313.272,166.642C313.741,166.642 314.176,166.391 314.411,165.984C314.646,165.577 314.645,165.075 314.41,164.669C314.278,164.44 314.242,164.166 314.311,163.911C314.379,163.656 314.546,163.438 314.775,163.305L317.997,161.445C318.226,161.313 318.499,161.277 318.755,161.345C319.01,161.414 319.229,161.582 319.361,161.811C319.596,162.218 320.03,162.469 320.5,162.469C320.97,162.469 321.404,162.218 321.639,161.811C321.771,161.582 321.99,161.414 322.245,161.345C322.501,161.277 322.774,161.313 323.003,161.445L326.225,163.305C326.454,163.438 326.621,163.656 326.689,163.911C326.758,164.166 326.722,164.44 326.59,164.669C326.355,165.075 326.354,165.577 326.589,165.984C326.824,166.391 327.259,166.642 327.728,166.642C327.993,166.642 328.248,166.747 328.435,166.934C328.622,167.121 328.727,167.375 328.727,167.64L328.727,171.36C328.727,171.625 328.622,171.879 328.435,172.066C328.248,172.253 327.993,172.358 327.728,172.358C327.259,172.358 326.824,172.609 326.589,173.016C326.354,173.423 326.355,173.925 326.59,174.331C326.722,174.56 326.758,174.834 326.689,175.089C326.621,175.344 326.454,175.562 326.225,175.695L323.003,177.555C322.774,177.687 322.501,177.723 322.245,177.655C321.99,177.586 321.771,177.418 321.639,177.189C321.404,176.782 320.97,176.531 320.5,176.531C320.03,176.531 319.596,176.782 319.361,177.189C319.229,177.418 319.01,177.586 318.755,177.655C318.499,177.723 318.226,177.687 317.997,177.555L314.775,175.695C314.546,175.562 314.379,175.344 314.311,175.089C314.242,174.834 314.278,174.56 314.41,174.331C314.645,173.925 314.646,173.423 314.411,173.016C314.176,172.609 313.741,172.358 313.272,172.358C313.007,172.358 312.752,172.253 312.565,172.066C312.378,171.879 312.273,171.625 312.273,171.36L312.273,167.64C312.273,167.375 312.378,167.121 312.565,166.934C312.752,166.747 313.007,166.642 313.272,166.642ZM320.5,166.77C318.986,166.77 317.758,167.994 317.758,169.5C317.758,171.006 318.986,172.23 320.5,172.23C322.014,172.23 323.242,171.006 323.242,169.5C323.242,167.994 322.014,166.77 320.5,166.77Z" style="fill:rgb(98,137,167);"/>
                </g>
            </g>
        </g>
    </g>
</svg>
