<?xml version="1.0" encoding="UTF-8" standalone="no"?>
<!DOCTYPE svg PUBLIC "-//W3C//DTD SVG 1.1//EN" "http://www.w3.org/Graphics/SVG/1.1/DTD/svg11.dtd">
<svg width="100%" height="100%" viewBox="0 0 80 80" version="1.1" xmlns="http://www.w3.org/2000/svg" xmlns:xlink="http://www.w3.org/1999/xlink" xml:space="preserve" xmlns:serif="http://www.serif.com/" style="fill-rule:evenodd;clip-rule:evenodd;stroke-linejoin:round;stroke-miterlimit:2;">
    <g transform="matrix(1,0,0,1,-1179.11,-3125.65)">
        <g id="Artboard2" transform="matrix(0.643985,0,0,0.600164,433.463,1265.29)">
            <rect x="1157.87" y="3099.75" width="124.227" height="133.297" style="fill:none;"/>
            <clipPath id="_clip1">
                <rect x="1157.87" y="3099.75" width="124.227" height="133.297"/>
            </clipPath>
            <g clip-path="url(#_clip1)">
                <g transform="matrix(14.658,0,0,15.7282,-335.598,1282.74)">
                    <g transform="matrix(0.1375,0,0,0.1375,-239.663,-302.937)">
                        <path d="M2545.64,3061.86L2545.64,3086.51C2545.64,3096.72 2537.35,3105 2527.14,3105L2502.49,3105C2492.28,3105 2484,3096.72 2484,3086.51L2484,3061.86C2484,3051.65 2492.28,3043.36 2502.49,3043.36L2527.14,3043.36C2537.35,3043.36 2545.64,3051.65 2545.64,3061.86Z" style="fill:rgb(235,184,32);"/>
                    </g>
                    <g transform="matrix(0.1375,0,0,0.1375,-239.663,-302.937)">
                        <path d="M2484,3064.86L2484,3061.86C2484,3051.65 2492.28,3043.36 2502.49,3043.36L2527.14,3043.36C2537.35,3043.36 2545.64,3051.65 2545.64,3061.86L2545.64,3064.86C2545.64,3054.65 2537.35,3046.36 2527.14,3046.36L2502.49,3046.36C2492.28,3046.36 2484,3054.65 2484,3064.86Z" style="fill:rgb(255,230,155);"/>
                    </g>
                    <g transform="matrix(0.1375,0,0,0.1375,-256.919,-307.819)">
                        <circle cx="2640.32" cy="3117.68" r="18.318" style="fill:rgb(197,148,0);"/>
                    </g>
                    <g transform="matrix(0.1375,0,0,0.0417962,-256.3,-9.73163)">
                        <rect x="2617.5" y="3098.23" width="36.636" height="26.318" style="fill:rgb(197,148,0);"/>
                    </g>
                    <g transform="matrix(0.1375,0,0,0.1375,-256.919,-308.919)">
                        <circle cx="2640.32" cy="3117.68" r="18.318" style="fill:rgb(255,205,57);"/>
                    </g>
                    <g transform="matrix(-0.1375,1.68389e-17,-1.68389e-17,-0.1375,469.169,548.994)">
                        <path d="M2622.11,3119.68C2623.11,3110.51 2630.88,3103.36 2640.32,3103.36C2649.75,3103.36 2657.53,3110.51 2658.53,3119.68C2657.53,3128.85 2649.75,3136 2640.32,3136C2630.88,3136 2623.11,3128.85 2622.11,3119.68ZM2640.32,3104.36C2632.97,3104.36 2627,3110.33 2627,3117.68C2627,3125.03 2632.97,3131 2640.32,3131C2647.67,3131 2653.64,3125.03 2653.64,3117.68C2653.64,3110.33 2647.67,3104.36 2640.32,3104.36Z" style="fill:rgb(233,175,0);"/>
                    </g>
                    <g transform="matrix(0.1375,0,0,0.1375,-256.919,-308.919)">
                        <path d="M2622.11,3119.68C2622.04,3119.03 2622,3118.36 2622,3117.68C2622,3107.57 2630.21,3099.36 2640.32,3099.36C2650.43,3099.36 2658.64,3107.57 2658.64,3117.68C2658.64,3118.36 2658.6,3119.03 2658.53,3119.68C2657.53,3110.51 2649.75,3103.36 2640.32,3103.36C2630.88,3103.36 2623.11,3110.51 2622.11,3119.68Z" style="fill:rgb(255,230,155);"/>
                    </g>
                </g>
            </g>
        </g>
    </g>
</svg>
