<?xml version="1.0" encoding="UTF-8" standalone="no"?>
<!DOCTYPE svg PUBLIC "-//W3C//DTD SVG 1.1//EN" "http://www.w3.org/Graphics/SVG/1.1/DTD/svg11.dtd">
<svg width="100%" height="100%" viewBox="0 0 80 80" version="1.1" xmlns="http://www.w3.org/2000/svg" xmlns:xlink="http://www.w3.org/1999/xlink" xml:space="preserve" xmlns:serif="http://www.serif.com/" style="fill-rule:evenodd;clip-rule:evenodd;stroke-linejoin:round;stroke-miterlimit:2;">
    <g transform="matrix(1,0,0,1,-1282,-3125.65)">
        <g id="Artboard2" transform="matrix(0.643985,0,0,0.600164,536.35,1265.29)">
            <rect x="1157.87" y="3099.75" width="124.227" height="133.297" style="fill:none;"/>
            <clipPath id="_clip1">
                <rect x="1157.87" y="3099.75" width="124.227" height="133.297"/>
            </clipPath>
            <g clip-path="url(#_clip1)">
                <g transform="matrix(14.658,0,0,15.7282,-577.455,1282.74)">
                    <g transform="matrix(0.1375,0,0,0.1375,-223.163,-302.937)">
                        <path d="M2545.64,3061.86L2545.64,3086.51C2545.64,3096.72 2537.35,3105 2527.14,3105L2502.49,3105C2492.28,3105 2484,3096.72 2484,3086.51L2484,3061.86C2484,3051.65 2492.28,3043.36 2502.49,3043.36L2527.14,3043.36C2537.35,3043.36 2545.64,3051.65 2545.64,3061.86Z" style="fill:rgb(235,184,32);"/>
                    </g>
                    <g transform="matrix(0.1375,0,0,0.1375,-223.163,-302.937)">
                        <path d="M2545.64,3072.78L2545.64,3086.51C2545.64,3096.72 2537.35,3105 2527.14,3105L2502.49,3105C2492.28,3105 2484,3096.72 2484,3086.51L2484,3082.55C2494.16,3074.96 2508.89,3070.18 2525.27,3070.18C2532.46,3070.18 2539.33,3071.1 2545.64,3072.78Z" style="fill:rgb(209,167,42);"/>
                    </g>
                    <g transform="matrix(0.1375,0,0,0.1375,-223.163,-302.937)">
                        <path d="M2484,3082.55L2484,3061.86C2484,3051.65 2492.28,3043.36 2502.49,3043.36L2527.14,3043.36C2537.35,3043.36 2545.64,3051.65 2545.64,3061.86L2545.64,3072.78C2539.33,3071.1 2532.46,3070.18 2525.27,3070.18C2508.89,3070.18 2494.16,3074.96 2484,3082.55Z" style="fill:rgb(235,184,32);"/>
                    </g>
                    <g transform="matrix(0.1375,0,0,0.1375,-223.163,-302.937)">
                        <path d="M2484,3064.86L2484,3061.86C2484,3051.65 2492.28,3043.36 2502.49,3043.36L2527.14,3043.36C2537.35,3043.36 2545.64,3051.65 2545.64,3061.86L2545.64,3064.86C2545.64,3054.65 2537.35,3046.36 2527.14,3046.36L2502.49,3046.36C2492.28,3046.36 2484,3054.65 2484,3064.86Z" style="fill:rgb(255,230,155);"/>
                    </g>
                    <g transform="matrix(-0.1375,1.68389e-17,-1.68389e-17,-0.1375,503.062,549.858)">
                        <path d="M2771.53,3109.65L2780.95,3116.5L2776.24,3122.98L2783.87,3125.46L2780.27,3136.54L2772.64,3134.06L2772.64,3142.08L2760.99,3142.08L2760.99,3134.06L2753.37,3136.54L2749.77,3125.46L2757.39,3122.98L2752.68,3116.5L2762.11,3109.65L2766.82,3116.14L2771.53,3109.65Z" style="fill:rgb(75,158,121);"/>
                    </g>
                    <g transform="matrix(-0.1375,1.68389e-17,-1.68389e-17,-0.1375,503.062,549.858)">
                        <path d="M2779.28,3123.97L2783.87,3125.46C2783.87,3125.46 2781.28,3132.14 2779.41,3133.57C2777.68,3134.9 2772.07,3132.65 2772.07,3132.65C2772.07,3132.65 2772.92,3137.15 2770.97,3139.19C2770.26,3139.93 2763.18,3140.18 2762.5,3139.19C2761.19,3137.25 2761.6,3132.38 2761.6,3132.38C2761.6,3132.38 2755.13,3135.23 2754.14,3133.49C2753.07,3131.6 2751.58,3129.86 2750.59,3127.97C2751.47,3128.01 2758.78,3129.73 2762.85,3127.97C2766.59,3126.35 2768.32,3128.52 2771.43,3127.97C2775.94,3127.17 2778.65,3124.27 2779.28,3123.97Z" style="fill:rgb(79,201,147);"/>
                    </g>
                </g>
            </g>
        </g>
    </g>
</svg>
