<?xml version="1.0" encoding="UTF-8" standalone="no"?>
<!DOCTYPE svg PUBLIC "-//W3C//DTD SVG 1.1//EN" "http://www.w3.org/Graphics/SVG/1.1/DTD/svg11.dtd">
<svg width="100%" height="100%" viewBox="0 0 240 240" version="1.1" xmlns="http://www.w3.org/2000/svg" xmlns:xlink="http://www.w3.org/1999/xlink" xml:space="preserve" xmlns:serif="http://www.serif.com/" style="fill-rule:evenodd;clip-rule:evenodd;stroke-linejoin:round;stroke-miterlimit:2;">
    <g transform="matrix(1,0,0,1,-2166.16,-2.51414)">
        <g id="Artboard1" transform="matrix(0.6,0,0,0.6,2166.16,2.51414)">
            <rect x="0" y="0" width="400" height="400" style="fill:none;"/>
            <clipPath id="_clip1">
                <rect x="0" y="0" width="400" height="400"/>
            </clipPath>
            <g clip-path="url(#_clip1)">
                <g transform="matrix(1.62529,0,0,1.82756,-2410.03,-151.179)">
                    <path d="M1728.94,155.679L1728.94,228.636C1728.94,268.902 1692.18,301.593 1646.9,301.593L1564.86,301.593C1519.59,301.593 1482.83,268.902 1482.83,228.636L1482.83,155.679C1482.83,115.413 1519.59,82.722 1564.86,82.722L1646.9,82.722C1692.18,82.722 1728.94,115.413 1728.94,155.679Z" style="fill:rgb(126,205,70);"/>
                </g>
                <g transform="matrix(1.295,0,0,1.295,-42.9421,-40.2098)">
                    <path d="M285.779,168.422C285.961,168.739 286.158,169.053 286.374,169.365C289.917,174.497 289.935,178.448 289.124,181.233C288.027,185.002 285.039,187.074 283.753,187.814C281.883,189.223 269.017,199.046 260.61,208.904C257.273,212.817 254.526,216.602 254.14,219.81C251.575,241.138 245.85,253.437 241.764,259.429C239.477,262.782 237.404,264.471 236.314,265.053C234.74,265.892 230.9,266.894 225.765,267.705C215.227,269.369 198.639,270.736 187.563,270.736C176.488,270.736 159.935,269.369 149.419,267.705C144.293,266.893 140.46,265.892 138.886,265.053C137.796,264.471 135.723,262.782 133.436,259.429C129.35,253.437 123.625,241.138 121.06,219.81C120.674,216.602 117.927,212.817 114.59,208.904C106.18,199.043 93.308,189.216 91.449,187.815C90.157,187.071 87.172,184.999 86.076,181.233C85.265,178.448 85.283,174.497 88.826,169.365C89.042,169.053 89.239,168.739 89.421,168.422C89.49,168.279 89.567,168.139 89.652,168.003C91.079,165.302 91.448,162.462 92.379,159.419C94.43,152.713 98.126,144.936 113.778,135.607C124.841,129.014 128.682,122.987 132.786,117.969C137.646,112.028 142.728,107.159 156.9,103.947C170.567,100.85 174.824,99.992 177.519,100.304C179.017,100.478 180.192,100.902 181.716,101.622C182.955,102.208 184.585,103.059 187.601,104.081C190.616,103.058 192.245,102.208 193.484,101.622C195.008,100.902 196.183,100.478 197.681,100.304C200.376,99.992 204.633,100.85 218.3,103.947C232.472,107.159 237.554,112.028 242.414,117.969C246.518,122.987 250.359,129.014 261.422,135.607C277.074,144.936 280.77,152.713 282.821,159.419C283.752,162.462 284.121,165.302 285.548,168.003C285.633,168.139 285.71,168.279 285.779,168.422ZM96.428,174.19L96.233,174.478C94.924,176.375 94.417,177.688 94.717,178.716C94.963,179.562 95.746,179.926 95.746,179.926C96.044,180.06 96.326,180.226 96.588,180.42C96.588,180.42 111.773,191.732 121.438,203.064C126.136,208.574 129.452,214.219 129.995,218.735C131.98,235.236 135.913,245.793 139.338,251.873C140.912,254.666 143.01,256.932 143.23,257.167C144.438,257.752 147.215,258.244 150.825,258.815C160.954,260.418 176.897,261.736 187.563,261.736C198.231,261.736 214.21,260.418 224.361,258.815C227.979,258.244 230.762,257.752 231.97,257.167C232.19,256.931 234.289,254.666 235.862,251.873C239.287,245.793 243.22,235.236 245.205,218.735C245.748,214.219 249.064,208.574 253.762,203.064C263.427,191.732 278.612,180.42 278.612,180.42C278.874,180.226 279.156,180.06 279.454,179.926C279.454,179.926 280.237,179.562 280.483,178.716C280.783,177.688 280.276,176.375 278.967,174.478L278.772,174.19C278.726,174.198 278.683,174.207 278.644,174.217C278.209,174.327 277.754,174.507 277.275,174.733C275.832,175.415 274.265,176.48 272.592,177.786C265.822,183.07 257.751,192.028 250.524,199.291C245.217,204.623 240.272,209.062 236.521,211.012C234.317,212.157 231.598,211.298 230.453,209.094C229.307,206.891 230.167,204.172 232.37,203.026C235.554,201.371 239.64,197.469 244.145,192.942C251.635,185.415 260.038,176.168 267.055,170.691C270.017,168.379 272.819,166.712 275.269,165.849C275.178,165.518 275.088,165.185 274.998,164.849C273.388,158.831 271.471,152.074 256.814,143.338C253.209,141.19 250.278,139.098 247.82,137.074C239.101,169.989 225.133,179.755 216.118,197.199C214.978,199.405 212.261,200.271 210.054,199.131C207.848,197.99 206.982,195.273 208.123,193.067C217.314,175.28 232.054,165.849 240.364,129.734C239.546,128.781 238.787,127.849 238.06,126.94C233.141,120.787 229.97,115.82 216.311,112.725C204.605,110.072 201.026,108.977 198.718,109.244C197.949,109.333 197.434,109.709 196.536,110.139C195.451,110.659 194.079,111.3 192.1,112.035L192.1,191.158C192.1,193.641 190.084,195.658 187.6,195.658C185.116,195.658 183.1,193.641 183.1,191.158L183.1,112.035C181.121,111.3 179.749,110.659 178.664,110.139C177.766,109.709 177.251,109.333 176.482,109.244C174.174,108.977 170.595,110.072 158.889,112.725C145.23,115.82 142.059,120.787 137.14,126.94C136.413,127.849 135.654,128.781 134.836,129.734C143.146,165.849 157.886,175.28 167.077,193.067C168.218,195.273 167.352,197.99 165.146,199.131C162.939,200.271 160.222,199.405 159.082,197.199C150.067,179.755 136.099,169.989 127.38,137.074C124.922,139.098 121.991,141.19 118.386,143.338C103.729,152.074 101.812,158.831 100.202,164.849C100.112,165.185 100.022,165.518 99.931,165.849C102.381,166.712 105.183,168.379 108.145,170.691C115.162,176.168 123.565,185.415 131.055,192.942C135.56,197.469 139.646,201.371 142.83,203.026C145.033,204.172 145.893,206.891 144.747,209.094C143.602,211.298 140.883,212.157 138.679,211.012C134.928,209.062 129.983,204.623 124.676,199.291C117.449,192.028 109.378,183.07 102.608,177.786C100.935,176.48 99.368,175.415 97.925,174.733C97.446,174.507 96.991,174.327 96.556,174.217C96.517,174.207 96.474,174.198 96.428,174.19Z" style="fill:rgb(241,255,182);"/>
                </g>
            </g>
        </g>
    </g>
</svg>
